<svg width="396" height="175" viewBox="0 0 396 175" fill="none" xmlns="http://www.w3.org/2000/svg">
    <g style="mix-blend-mode:multiply">
        <path fill-rule="evenodd" clip-rule="evenodd" d="M360.212 43.665C405.047 54.3471 434.839 86.4489 468.388 112.976C503.409 140.668 546.977 165.301 559.55 201.286C572.715 238.965 556.666 275.684 536.722 308.55C515.747 343.113 491.769 381.419 443.451 392.604C395.935 403.604 344.551 375.325 293.494 364.856C242.191 354.336 181.73 361.591 143.986 331.198C106.146 300.727 108.648 255.262 108.432 215.837C108.245 181.588 121.693 150.558 142.842 122.224C163.602 94.4108 189.877 69.462 227.967 55.6959C267.87 41.2748 314.6 32.7979 360.212 43.665Z" fill="#F2F8FF" fill-opacity="0.8"/>
    </g>
    <g style="mix-blend-mode:multiply">
        <path fill-rule="evenodd" clip-rule="evenodd" d="M160.532 436.125C118.675 416.828 95.7828 379.492 68.1105 346.881C39.2238 312.839 1.35467 280.114 -3.89143 242.359C-9.38458 202.826 13.577 169.983 39.5985 141.685C66.9643 111.925 98.0114 79.0865 147.586 77.6279C196.337 76.1936 241.152 114.031 289.15 134.343C337.38 154.753 398.086 159.538 429.112 196.764C460.216 234.085 448.816 278.168 441.269 316.865C434.713 350.482 415.422 378.259 389.111 401.877C363.283 425.061 332.613 444.351 292.558 450.353C250.598 456.639 203.114 455.755 160.532 436.125Z" fill="#F2F8FF" fill-opacity="0.8"/>
    </g>
</svg>
