<svg width="396" height="375" viewBox="0 0 396 375" fill="none" xmlns="http://www.w3.org/2000/svg">
    <path fill-rule="evenodd" clip-rule="evenodd" d="M352.953 58.5386C341.004 95.0456 350.499 145.882 318.795 167.57C286.056 189.967 240.501 165.06 200.913 162.548C170.877 160.643 140.294 144.864 111.759 154.436C62.7297 170.882 33.1565 235.556 -18.5538 236.164C-60.6065 236.658 -84.5511 185.584 -115.497 157.105C-147.843 127.337 -185.727 101.952 -206.492 63.2062C-227.677 23.6767 -235.812 -22.1335 -235.589 -66.9812C-235.369 -111.491 -226.931 -156.993 -205.209 -195.844C-184.109 -233.583 -147.792 -259.741 -113.265 -285.767C-82.125 -309.239 -48.3366 -328.46 -11.6693 -341.731C22.8773 -354.234 60.305 -370.851 95.8192 -361.441C132.991 -351.592 146.692 -294.256 184.871 -289.655C231.421 -284.044 270.037 -337.852 316.825 -334.802C361.683 -331.878 408.07 -308.881 435.557 -273.312C462.743 -238.132 473.4 -187.673 464.127 -144.19C454.457 -98.8399 406.369 -72.5328 384.072 -31.8751C368.615 -3.68839 362.952 27.9866 352.953 58.5386Z" fill="#F2F8FF"/>
    <g style="mix-blend-mode:multiply">
        <path fill-rule="evenodd" clip-rule="evenodd" d="M128.859 -185.219C175.847 -173.94 206.763 -138.761 241.695 -109.801C278.161 -79.5694 323.646 -52.8286 336.42 -13.1412C349.795 28.415 332.48 69.2648 311.119 105.896C288.655 144.419 262.988 187.123 212.074 200.097C162.005 212.856 108.351 182.175 54.8233 171.207C1.03721 160.186 -62.5901 168.957 -101.884 135.768C-141.279 102.494 -138.094 52.1266 -137.839 8.47939C-137.618 -29.4383 -123.106 -63.958 -100.535 -95.5864C-78.3776 -126.634 -50.4612 -154.577 -10.2639 -170.283C31.8461 -186.737 81.0585 -196.693 128.859 -185.219Z" fill="#F2F8FF" fill-opacity="0.8"/>
    </g>
</svg>
